<svg width="300" height="300" viewBox="0 0 300 300" fill="none" xmlns="http://www.w3.org/2000/svg">
<rect width="300" height="300" fill="#24292E"/>
<path d="M113.273 151.773V163.545H72V151.773H113.273ZM132.666 197V127.182H145.712V138.545H146.575C148.03 134.697 150.409 131.697 153.712 129.545C157.015 127.364 160.969 126.273 165.575 126.273C170.242 126.273 174.151 127.364 177.303 129.545C180.485 131.727 182.833 134.727 184.348 138.545H185.075C186.742 134.818 189.394 131.848 193.03 129.636C196.666 127.394 201 126.273 206.03 126.273C212.363 126.273 217.53 128.258 221.53 132.227C225.56 136.197 227.575 142.182 227.575 150.182V197H213.985V151.455C213.985 146.727 212.697 143.303 210.121 141.182C207.545 139.061 204.469 138 200.894 138C196.469 138 193.03 139.364 190.575 142.091C188.121 144.788 186.894 148.258 186.894 152.5V197H173.348V150.591C173.348 146.803 172.166 143.758 169.803 141.455C167.439 139.152 164.363 138 160.575 138C158 138 155.621 138.682 153.439 140.045C151.288 141.379 149.545 143.242 148.212 145.636C146.909 148.03 146.257 150.803 146.257 153.955V197H132.666Z" fill="white"/>
</svg>
